<?xml version="1.0" encoding="utf-8"?>
<!-- Generator: Adobe Illustrator 22.1.0, SVG Export Plug-In . SVG Version: 6.00 Build 0)  -->
<svg version="1.1" id="Layer_1" xmlns="http://www.w3.org/2000/svg" xmlns:xlink="http://www.w3.org/1999/xlink" x="0px" y="0px"
	 viewBox="0 0 67.9 70.8" style="enable-background:new 0 0 67.9 70.8;" xml:space="preserve">
<style type="text/css">
	.st0{fill:#252525;}
	.st1{fill:#EC008C;}
	.st2{fill:#FFFFFF;}
</style>
<g>
	<circle class="st0" cx="33.5" cy="34.7" r="30.7"/>
	<path class="st1" d="M33.5,4C16.6,4,2.8,17.7,2.8,34.7h61.4C64.2,17.7,50.5,4,33.5,4z"/>
	<g>
		<path class="st2" d="M16.3,17.6H19v9.7h4.7v2.3h-7.4V17.6z"/>
		<path class="st2" d="M26.5,29.5v-4.9l-3.8-7h3.1l1.2,2.9c0.4,0.9,0.6,1.5,0.9,2.3h0c0.3-0.7,0.5-1.4,0.9-2.3l1.2-2.9h3l-3.9,7v5
			H26.5z"/>
		<path class="st2" d="M34.1,17.6h7.3v2.2h-4.6v2.7h4.3v2.2h-4.3v4.8h-2.7V17.6z"/>
		<path class="st2" d="M45.7,19.9h-3.2v-2.3h9.2v2.3h-3.3v9.7h-2.7V19.9z"/>
		<path class="st2" d="M16.1,38.8v6.9c0,2.1,0.8,3.1,2.2,3.1c1.4,0,2.2-1,2.2-3.1v-6.9h2.7v6.7c0,3.7-1.9,5.4-5,5.4
			c-3,0-4.8-1.7-4.8-5.5v-6.7H16.1z"/>
		<path class="st2" d="M25.4,39c0.7-0.1,2.1-0.2,3.5-0.2c1.6,0,2.7,0.2,3.5,0.7c0.8,0.4,1.4,1.3,1.4,2.3c0,1.1-0.6,2.1-2,2.5v0
			c1.4,0.4,2.4,1.4,2.4,2.9c0,1.1-0.5,1.9-1.2,2.5c-0.9,0.7-2.3,1.1-4.7,1.1c-1.3,0-2.3-0.1-2.9-0.2V39z M28.1,43.6H29
			c1.4,0,2.2-0.6,2.2-1.5c0-0.9-0.7-1.4-1.9-1.4c-0.6,0-0.9,0-1.1,0.1V43.6z M28.1,48.8c0.3,0,0.6,0,1,0c1.2,0,2.3-0.5,2.3-1.7
			c0-1.2-1.1-1.7-2.4-1.7h-0.9V48.8z"/>
		<path class="st2" d="M43.2,45.7h-4.4v2.8h4.9v2.2h-7.6V38.8h7.4V41h-4.7v2.5h4.4V45.7z"/>
		<path class="st2" d="M45.6,39c0.9-0.1,2.2-0.2,3.6-0.2c1.8,0,3,0.3,3.9,0.9c0.7,0.6,1.1,1.4,1.1,2.5c0,1.5-1.1,2.6-2.1,2.9v0.1
			c0.8,0.3,1.3,1.1,1.6,2.2c0.4,1.3,0.7,2.9,1,3.4h-2.8c-0.2-0.3-0.5-1.3-0.8-2.8c-0.3-1.5-0.8-1.9-1.9-1.9h-0.8v4.7h-2.7V39z
			 M48.2,44.1h1.1c1.3,0,2.1-0.7,2.1-1.7c0-1.1-0.7-1.6-2-1.7c-0.7,0-1,0.1-1.2,0.1V44.1z"/>
	</g>
	<path class="st2" d="M33.5,66.3c-17.5,0-31.7-14.2-31.7-31.7S16.1,3,33.5,3s31.7,14.2,31.7,31.7S51,66.3,33.5,66.3z M33.5,4.9
		C17.2,4.9,3.8,18.3,3.8,34.7s13.3,29.7,29.7,29.7S63.3,51,63.3,34.7S49.9,4.9,33.5,4.9z"/>
</g>
</svg>
